HIERARCHY
ROOT mixamorig:Hips
{
	OFFSET 0.000000 10.034300 0.000000
	CHANNELS 6 Xposition Yposition Zposition Xrotation Yrotation Zrotation
	JOINT mixamorig:Spine
	{
		OFFSET -0.009801 0.704300 -0.140100
		CHANNELS 3 Xrotation Yrotation Zrotation
		JOINT mixamorig:Spine1
		{
			OFFSET -0.011947 0.821611 -0.163466
			CHANNELS 3 Xrotation Yrotation Zrotation
			JOINT mixamorig:Spine2
			{
				OFFSET -0.013653 0.938998 -0.186822
				CHANNELS 3 Xrotation Yrotation Zrotation
				JOINT mixamorig:Neck
				{
					OFFSET -0.015401 1.056399 -0.210201
					CHANNELS 3 Xrotation Yrotation Zrotation
					JOINT mixamorig:Head
					{
						OFFSET -0.000000 0.348500 0.040400
						CHANNELS 3 Xrotation Yrotation Zrotation
						JOINT mixamorig:HeadTop_End
						{
							OFFSET -0.000001 2.364800 0.273998
							CHANNELS 3 Xrotation Yrotation Zrotation
							End Site
							{
								OFFSET -0.000001 1.625792 -0.000001
							}
						}
						JOINT mixamorig:LeftEye
						{
							OFFSET 0.294400 0.805001 0.917099
							CHANNELS 3 Xrotation Yrotation Zrotation
							End Site
							{
								OFFSET -0.000001 1.625792 -0.000001
							}
						}
						JOINT mixamorig:RightEye
						{
							OFFSET -0.228300 0.805000 0.917099
							CHANNELS 3 Xrotation Yrotation Zrotation
							End Site
							{
								OFFSET -0.000001 1.625793 -0.000001
							}
						}
					}
				}
				JOINT mixamorig:LeftShoulder
				{
					OFFSET 0.498599 0.821400 -0.206301
					CHANNELS 3 Xrotation Yrotation Zrotation
					JOINT mixamorig:LeftArm
					{
						OFFSET 1.082862 -0.323582 0.007671
						CHANNELS 3 Xrotation Yrotation Zrotation
						JOINT mixamorig:LeftForeArm
						{
							OFFSET 1.878300 0.000000 0.000000
							CHANNELS 3 Xrotation Yrotation Zrotation
							JOINT mixamorig:LeftHand
							{
								OFFSET 2.627700 0.000000 0.000000
								CHANNELS 3 Xrotation Yrotation Zrotation
								JOINT mixamorig:LeftHandThumb1
								{
									OFFSET 0.243600 -0.065481 0.095713
									CHANNELS 3 Xrotation Yrotation Zrotation
									JOINT mixamorig:LeftHandThumb2
									{
										OFFSET 0.167236 -0.096554 0.096554
										CHANNELS 3 Xrotation Yrotation Zrotation
										JOINT mixamorig:LeftHandThumb3
										{
											OFFSET 0.200465 -0.115739 0.115738
											CHANNELS 3 Xrotation Yrotation Zrotation
											JOINT mixamorig:LeftHandThumb4
											{
												OFFSET 0.168321 -0.097179 0.097180
												CHANNELS 3 Xrotation Yrotation Zrotation
												End Site
												{
													OFFSET 0.168320 -0.097179 0.097180
												}
											}
										}
									}
								}
								JOINT mixamorig:LeftHandIndex1
								{
									OFFSET 0.796600 -0.041280 0.102508
									CHANNELS 3 Xrotation Yrotation Zrotation
									JOINT mixamorig:LeftHandIndex2
									{
										OFFSET 0.175700 0.000000 0.000000
										CHANNELS 3 Xrotation Yrotation Zrotation
										JOINT mixamorig:LeftHandIndex3
										{
											OFFSET 0.150900 0.000000 0.000000
											CHANNELS 3 Xrotation Yrotation Zrotation
											JOINT mixamorig:LeftHandIndex4
											{
												OFFSET 0.202400 0.000000 0.000000
												CHANNELS 3 Xrotation Yrotation Zrotation
												End Site
												{
													OFFSET 0.202400 0.000000 0.000000
												}
											}
										}
									}
								}
								JOINT mixamorig:LeftHandMiddle1
								{
									OFFSET 0.805001 0.000000 0.000000
									CHANNELS 3 Xrotation Yrotation Zrotation
									JOINT mixamorig:LeftHandMiddle2
									{
										OFFSET 0.204500 0.000000 0.000000
										CHANNELS 3 Xrotation Yrotation Zrotation
										JOINT mixamorig:LeftHandMiddle3
										{
											OFFSET 0.177500 0.000000 0.000000
											CHANNELS 3 Xrotation Yrotation Zrotation
											JOINT mixamorig:LeftHandMiddle4
											{
												OFFSET 0.249400 0.000000 0.000000
												CHANNELS 3 Xrotation Yrotation Zrotation
												End Site
												{
													OFFSET 0.249400 0.000000 0.000000
												}
											}
										}
									}
								}
								JOINT mixamorig:LeftHandRing1
								{
									OFFSET 0.758801 -0.016233 -0.167397
									CHANNELS 3 Xrotation Yrotation Zrotation
									JOINT mixamorig:LeftHandRing2
									{
										OFFSET 0.202000 0.000000 0.000000
										CHANNELS 3 Xrotation Yrotation Zrotation
										JOINT mixamorig:LeftHandRing3
										{
											OFFSET 0.161001 0.000000 0.000000
											CHANNELS 3 Xrotation Yrotation Zrotation
											JOINT mixamorig:LeftHandRing4
											{
												OFFSET 0.233300 0.000000 0.000000
												CHANNELS 3 Xrotation Yrotation Zrotation
												End Site
												{
													OFFSET 0.233300 0.000000 0.000000
												}
											}
										}
									}
								}
								JOINT mixamorig:LeftHandPinky1
								{
									OFFSET 0.698901 -0.028859 -0.296094
									CHANNELS 3 Xrotation Yrotation Zrotation
									JOINT mixamorig:LeftHandPinky2
									{
										OFFSET 0.162400 0.000000 0.000000
										CHANNELS 3 Xrotation Yrotation Zrotation
										JOINT mixamorig:LeftHandPinky3
										{
											OFFSET 0.132100 0.000000 0.000000
											CHANNELS 3 Xrotation Yrotation Zrotation
											JOINT mixamorig:LeftHandPinky4
											{
												OFFSET 0.190500 0.000000 0.000000
												CHANNELS 3 Xrotation Yrotation Zrotation
												End Site
												{
													OFFSET 0.190500 0.000000 0.000000
												}
											}
										}
									}
								}
							}
						}
					}
				}
				JOINT mixamorig:RightShoulder
				{
					OFFSET -0.511001 0.821400 -0.214000
					CHANNELS 3 Xrotation Yrotation Zrotation
					JOINT mixamorig:RightArm
					{
						OFFSET -1.048163 -0.323581 -0.007671
						CHANNELS 3 Xrotation Yrotation Zrotation
						JOINT mixamorig:RightForeArm
						{
							OFFSET -1.874700 0.000000 0.000000
							CHANNELS 3 Xrotation Yrotation Zrotation
							JOINT mixamorig:RightHand
							{
								OFFSET -2.602601 0.000000 0.000000
								CHANNELS 3 Xrotation Yrotation Zrotation
								JOINT mixamorig:RightHandThumb1
								{
									OFFSET -0.289492 -0.066646 0.113594
									CHANNELS 3 Xrotation Yrotation Zrotation
									JOINT mixamorig:RightHandThumb2
									{
										OFFSET -0.197135 -0.113816 0.113816
										CHANNELS 3 Xrotation Yrotation Zrotation
										JOINT mixamorig:RightHandThumb3
										{
											OFFSET -0.175369 -0.101250 0.101249
											CHANNELS 3 Xrotation Yrotation Zrotation
											JOINT mixamorig:RightHandThumb4
											{
												OFFSET -0.129590 -0.074818 0.074819
												CHANNELS 3 Xrotation Yrotation Zrotation
												End Site
												{
													OFFSET -0.129590 -0.074819 0.074819
												}
											}
										}
									}
								}
								JOINT mixamorig:RightHandIndex1
								{
									OFFSET -0.806096 -0.033512 0.141997
									CHANNELS 3 Xrotation Yrotation Zrotation
									JOINT mixamorig:RightHandIndex2
									{
										OFFSET -0.178800 0.000000 0.000000
										CHANNELS 3 Xrotation Yrotation Zrotation
										JOINT mixamorig:RightHandIndex3
										{
											OFFSET -0.142400 0.000000 0.000000
											CHANNELS 3 Xrotation Yrotation Zrotation
											JOINT mixamorig:RightHandIndex4
											{
												OFFSET -0.195501 0.000000 0.000000
												CHANNELS 3 Xrotation Yrotation Zrotation
												End Site
												{
													OFFSET -0.195500 0.000000 0.000000
												}
											}
										}
									}
								}
								JOINT mixamorig:RightHandMiddle1
								{
									OFFSET -0.805100 0.000000 0.000000
									CHANNELS 3 Xrotation Yrotation Zrotation
									JOINT mixamorig:RightHandMiddle2
									{
										OFFSET -0.194900 0.000000 0.000000
										CHANNELS 3 Xrotation Yrotation Zrotation
										JOINT mixamorig:RightHandMiddle3
										{
											OFFSET -0.175601 0.000000 0.000000
											CHANNELS 3 Xrotation Yrotation Zrotation
											JOINT mixamorig:RightHandMiddle4
											{
												OFFSET -0.241400 0.000000 0.000000
												CHANNELS 3 Xrotation Yrotation Zrotation
												End Site
												{
													OFFSET -0.241400 0.000000 0.000000
												}
											}
										}
									}
								}
								JOINT mixamorig:RightHandRing1
								{
									OFFSET -0.837599 -0.011590 -0.166501
									CHANNELS 3 Xrotation Yrotation Zrotation
									JOINT mixamorig:RightHandRing2
									{
										OFFSET -0.179400 0.000000 0.000000
										CHANNELS 3 Xrotation Yrotation Zrotation
										JOINT mixamorig:RightHandRing3
										{
											OFFSET -0.145899 0.000000 0.000000
											CHANNELS 3 Xrotation Yrotation Zrotation
											JOINT mixamorig:RightHandRing4
											{
												OFFSET -0.198400 0.000000 0.000000
												CHANNELS 3 Xrotation Yrotation Zrotation
												End Site
												{
													OFFSET -0.198400 0.000000 0.000000
												}
											}
										}
									}
								}
								JOINT mixamorig:RightHandPinky1
								{
									OFFSET -0.762397 -0.028970 -0.293202
									CHANNELS 3 Xrotation Yrotation Zrotation
									JOINT mixamorig:RightHandPinky2
									{
										OFFSET -0.142800 0.000000 0.000000
										CHANNELS 3 Xrotation Yrotation Zrotation
										JOINT mixamorig:RightHandPinky3
										{
											OFFSET -0.119099 0.000000 0.000000
											CHANNELS 3 Xrotation Yrotation Zrotation
											JOINT mixamorig:RightHandPinky4
											{
												OFFSET -0.167000 0.000000 0.000000
												CHANNELS 3 Xrotation Yrotation Zrotation
												End Site
												{
													OFFSET -0.167000 0.000000 0.000000
												}
											}
										}
									}
								}
							}
						}
					}
				}
				JOINT mixamorig:Sleeve1
				{
					OFFSET 1.326500 -0.111899 -0.202700
					CHANNELS 3 Xrotation Yrotation Zrotation
					JOINT mixamorig:Sleeve2
					{
						OFFSET 0.224567 -1.626975 0.000001
						CHANNELS 3 Xrotation Yrotation Zrotation
						End Site
						{
							OFFSET 0.224567 -1.626975 0.000001
						}
					}
				}
			}
		}
	}
	JOINT mixamorig:RightUpLeg
	{
		OFFSET -0.967499 -0.391902 -0.043000
		CHANNELS 3 Xrotation Yrotation Zrotation
		JOINT mixamorig:RightLeg
		{
			OFFSET -0.000000 -4.155837 -0.036891
			CHANNELS 3 Xrotation Yrotation Zrotation
			JOINT mixamorig:RightFoot
			{
				OFFSET -0.000000 -4.587847 -0.217521
				CHANNELS 3 Xrotation Yrotation Zrotation
				JOINT mixamorig:RightToeBase
				{
					OFFSET -0.142859 -0.827737 0.856996
					CHANNELS 3 Xrotation Yrotation Zrotation
					JOINT mixamorig:RightToe_End
					{
						OFFSET -0.040298 -0.004433 0.438128
						CHANNELS 3 Xrotation Yrotation Zrotation
						End Site
						{
							OFFSET -0.040298 -0.004433 0.438128
						}
					}
				}
			}
		}
	}
	JOINT mixamorig:LeftUpLeg
	{
		OFFSET 0.919501 -0.391898 -0.043000
		CHANNELS 3 Xrotation Yrotation Zrotation
		JOINT mixamorig:LeftLeg
		{
			OFFSET -0.000000 -4.155837 -0.036891
			CHANNELS 3 Xrotation Yrotation Zrotation
			JOINT mixamorig:LeftFoot
			{
				OFFSET -0.000000 -4.587847 -0.217521
				CHANNELS 3 Xrotation Yrotation Zrotation
				JOINT mixamorig:LeftToeBase
				{
					OFFSET 0.142859 -0.827739 0.856995
					CHANNELS 3 Xrotation Yrotation Zrotation
					JOINT mixamorig:LeftToe_End
					{
						OFFSET 0.040298 -0.004433 0.438128
						CHANNELS 3 Xrotation Yrotation Zrotation
						End Site
						{
							OFFSET 0.040298 -0.004433 0.438128
						}
					}
				}
			}
		}
	}
}
MOTION
Frames: 4
Frame Time: 0.033333
0.016192 9.406947 0.004895 -1.488579 5.485708 3.047036 5.548607 -0.004942 -0.565247 11.097188 0.009758 -0.734756 11.097183 0.009757 -0.734754 -10.509513 -1.525001 -3.378794 -17.396376 -3.946722 2.467852 0.000000 0.000000 0.000000 0.000000 0.000000 0.000000 0.000000 0.000000 -0.000000 9.458496 -6.444342 -14.996445 -9.681591 10.606812 -35.776305 0.002090 -55.259297 0.168699 23.868987 -12.513332 16.449903 7.350837 -14.484220 -10.934848 -1.067069 0.182831 1.946091 0.000006 0.000002 0.000008 0.000000 0.000004 -0.000005 5.776114 -9.584529 -10.641335 0.033778 0.666537 -10.636457 -0.000001 -0.000002 -0.000001 -0.000002 -0.000001 0.000002 1.641883 7.127202 -4.239641 -0.187960 -0.789332 -15.969042 0.000005 0.000002 -0.000005 0.000001 0.000000 -0.000002 1.677296 11.039970 -8.046046 -0.183071 -2.876863 -23.912166 0.000007 -0.000002 0.000003 0.000001 0.000002 -0.000005 0.734570 28.047571 -16.218773 -0.849525 -6.142187 -29.148290 -0.000003 0.000001 -0.000000 -0.000002 0.000000 -0.000000 -8.748786 -25.656021 -2.247827 -12.629167 6.268493 62.693712 -0.210618 114.391120 0.221924 -38.068971 18.046943 -8.750737 28.820171 6.808748 -14.431037 0.073713 -2.141549 -1.907860 -0.000015 -0.000011 0.000016 0.000005 -0.000001 -0.000000 -0.338092 8.930304 13.236829 0.191791 -1.297633 21.915350 -0.000006 -0.000004 0.000007 0.000000 -0.000002 0.000004 -5.019944 6.557954 31.510627 -4.002581 3.019759 97.316221 -0.000003 0.000001 0.000002 -0.000003 0.000001 0.000002 -10.851459 5.502613 37.634851 -5.804093 6.639851 86.643484 0.000001 0.000001 0.000002 -0.000001 0.000000 -0.000000 -2.774553 5.215354 41.351775 -0.757825 11.630467 46.251207 0.000001 -0.000001 0.000001 0.000001 -0.000001 0.000001 -0.000001 -0.000001 0.000001 -0.000001 -0.000001 -0.000002 -21.355859 -12.374278 -19.478062 39.984505 0.227741 1.471191 -16.681728 -8.139620 9.105742 -0.012192 -0.109705 0.262086 -0.000000 -0.000000 0.000000 -22.654409 -6.152712 9.234098 27.643850 -0.280208 -1.032241 -3.967178 -2.804478 -12.806439 0.002992 -0.026200 0.062605 -0.000000 0.000000 0.000000 
0.016324 9.399086 0.005975 -1.555929 5.571738 3.102365 5.545889 -0.014556 -0.581397 11.091756 -0.011870 -0.765493 11.091744 -0.011871 -0.765494 -10.491361 -1.599753 -3.299198 -17.347548 -4.009919 2.473219 0.000000 0.000000 -0.000000 0.000000 0.000000 -0.000000 0.000000 0.000000 -0.000000 9.434969 -6.456021 -15.025470 -10.362370 10.775151 -35.563822 0.004728 -55.056550 0.170872 23.580436 -12.584735 15.534295 7.336950 -14.365969 -10.856593 -1.063229 0.181887 1.941147 0.000009 -0.000000 0.000001 0.000002 -0.000000 -0.000003 5.743324 -9.529071 -10.859365 0.034672 0.669723 -10.835116 0.000001 0.000000 -0.000003 0.000002 0.000002 -0.000004 1.610657 7.073034 -4.624225 -0.190863 -0.799515 -16.098288 0.000001 0.000002 -0.000004 0.000005 0.000000 -0.000003 1.646120 10.965550 -8.414134 -0.187506 -2.883062 -24.010106 0.000006 -0.000003 0.000005 -0.000003 0.000002 0.000000 0.791279 27.893917 -16.597882 -0.856652 -6.154610 -29.271407 -0.000003 -0.000000 -0.000000 0.000000 0.000000 -0.000001 -8.723376 -25.579805 -2.208631 -12.608253 6.254241 62.658591 -0.207220 114.599455 0.219342 -38.029817 18.163595 -9.005761 28.194031 6.787617 -14.105564 -0.080984 -2.267349 -1.950153 -0.000015 -0.000003 0.000018 -0.000000 -0.000003 -0.000002 -0.338064 8.930315 13.236820 0.191789 -1.297623 21.915359 -0.000007 0.000001 0.000007 -0.000001 -0.000002 0.000004 -5.023695 6.544751 31.522392 -4.007115 3.019179 97.390124 -0.000001 0.000000 0.000001 -0.000001 0.000000 0.000001 -10.851463 5.502616 37.634848 -5.812099 6.640318 86.717810 -0.000001 0.000001 0.000000 -0.000003 0.000000 -0.000000 -2.772031 5.212436 41.329936 -0.751798 11.624686 46.202278 -0.000000 0.000001 -0.000001 -0.000000 0.000001 -0.000001 -0.000002 0.000001 0.000000 -0.000000 0.000001 -0.000002 -21.396804 -12.255981 -19.554321 40.276980 0.224849 1.480967 -16.930285 -8.167721 9.272708 -0.086530 -0.230497 0.314939 -0.000000 0.000000 -0.000000 -22.870018 -5.796820 9.271084 28.005775 -0.283457 -1.046277 -4.239799 -3.264374 -12.481495 0.000746 -0.006643 0.015878 0.000000 0.000001 -0.000000 
0.021987 9.383679 0.009351 -1.686701 5.664100 3.184803 5.531892 -0.035353 -0.602571 11.063743 -0.057829 -0.808222 11.063744 -0.057828 -0.808222 -10.436457 -1.737986 -3.151711 -17.288896 -4.116337 2.471022 0.000000 0.000000 -0.000000 0.000000 0.000000 0.000000 0.000000 0.000000 0.000000 9.369621 -6.481820 -15.081017 -11.267067 10.455502 -34.987552 0.006068 -54.413436 0.172010 23.271935 -12.496456 14.460407 7.295575 -14.029340 -10.631428 -1.052440 0.179179 1.927143 0.000007 -0.000001 0.000005 -0.000001 0.000003 -0.000003 5.652941 -9.368488 -11.475439 0.037363 0.678647 -11.396462 -0.000002 0.000001 -0.000000 -0.000001 0.000000 0.000001 1.520165 6.923564 -5.711306 -0.199242 -0.828202 -16.463676 0.000001 0.000003 -0.000008 -0.000002 0.000000 -0.000001 1.552116 10.758332 -9.453777 -0.200135 -2.900403 -24.286891 0.000011 -0.000001 0.000004 0.000002 0.000000 0.000001 0.939413 27.455344 -17.663702 -0.876898 -6.189636 -29.619416 -0.000001 -0.000000 0.000000 0.000001 -0.000000 0.000000 -8.656469 -25.338788 -2.074586 -12.557378 6.141349 62.480037 -0.199737 115.045480 0.213356 -37.951540 18.563279 -9.564909 26.632852 6.722452 -13.286548 -0.468742 -2.580015 -2.057940 -0.000015 -0.000001 0.000021 0.000004 -0.000003 -0.000000 -0.338068 8.930289 13.236808 0.191768 -1.297613 21.915355 -0.000005 0.000001 0.000007 0.000001 -0.000004 -0.000003 -5.034418 6.507073 31.555932 -4.020048 3.017487 97.601170 0.000001 0.000000 -0.000001 0.000001 0.000000 -0.000001 -10.851461 5.502616 37.634848 -5.834856 6.641556 86.929983 -0.000002 0.000003 0.000004 -0.000004 -0.000001 -0.000001 -2.764864 5.204088 41.267579 -0.734625 11.608257 46.062615 -0.000002 0.000000 -0.000001 -0.000002 0.000000 -0.000001 -0.000000 0.000001 0.000001 -0.000000 -0.000000 -0.000001 -21.498309 -12.145627 -19.790477 40.784627 0.219937 1.497896 -17.271091 -8.040488 9.607939 -0.194157 -0.290549 0.339084 -0.000000 0.000000 0.000000 -23.244710 -5.585610 9.193628 28.835573 -0.287386 -1.077338 -4.811057 -3.566801 -11.941768 0.145517 0.080305 0.024124 -0.000000 0.000000 0.000000 
0.037040 9.363081 0.015216 -1.876292 5.698795 3.356775 5.513443 -0.061670 -0.639677 11.026789 -0.117104 -0.878459 11.026783 -0.117107 -0.878460 -10.370185 -1.923286 -2.995252 -17.277310 -4.272853 2.508081 0.000000 0.000000 -0.000000 0.000000 0.000000 -0.000000 0.000000 0.000000 -0.000000 9.252375 -6.550136 -15.266719 -12.188058 9.277379 -33.850226 0.004175 -53.096241 0.170538 22.531460 -12.146820 13.410499 7.226762 -13.501982 -10.273296 -1.035752 0.175032 1.905294 0.000006 -0.000000 0.000001 0.000002 0.000000 -0.000006 5.519793 -9.111051 -12.432047 0.041680 0.692455 -12.268749 -0.000001 -0.000000 0.000000 -0.000005 -0.000000 -0.000002 1.373082 6.702169 -7.401435 -0.212613 -0.872673 -17.031399 -0.000001 0.000003 -0.000004 0.000001 -0.000002 -0.000002 1.391105 10.445474 -11.068251 -0.219959 -2.927103 -24.717039 0.000006 -0.000003 0.000004 -0.000004 0.000000 0.000001 1.135318 26.765630 -19.304775 -0.908750 -6.243845 -30.160230 -0.000004 -0.000000 0.000000 -0.000002 -0.000000 0.000000 -8.537136 -24.966119 -1.902769 -12.518039 5.951612 62.280738 -0.189491 115.629461 0.205136 -37.746501 19.160936 -10.424527 24.612771 6.610958 -12.210721 -0.975005 -2.982416 -2.202634 -0.000015 -0.000008 0.000018 -0.000002 0.000001 -0.000002 -0.338075 8.930290 13.236846 0.191771 -1.297628 21.915362 -0.000007 0.000003 0.000006 -0.000001 -0.000006 -0.000000 -5.051216 6.447779 31.608685 -4.040381 3.014724 97.933178 -0.000002 -0.000000 0.000002 -0.000002 -0.000000 0.000002 -10.851460 5.502613 37.634851 -5.870678 6.643369 87.263747 -0.000002 0.000000 0.000002 -0.000002 -0.000001 0.000000 -2.753643 5.190989 41.169529 -0.707686 11.582290 45.842915 -0.000001 -0.000001 0.000000 -0.000001 -0.000001 0.000000 0.000000 0.000000 0.000001 0.000000 -0.000000 -0.000002 -21.524525 -11.644890 -20.074865 41.426439 0.217426 1.519465 -17.660651 -8.203871 10.032072 -0.295622 -0.313505 0.346516 0.000000 -0.000002 -0.000000 -23.676576 -5.538765 8.905302 29.992969 -0.291120 -1.119002 -5.597094 -3.564181 -11.165093 0.204395 0.083705 0.024098 0.000000 -0.000000 -0.000000 
